<?xml version="1.0" standalone="no"?>
<!DOCTYPE svg PUBLIC "-//W3C//DTD SVG 20010904//EN"
 "http://www.w3.org/TR/2001/REC-SVG-20010904/DTD/svg10.dtd">
<svg version="1.0" xmlns="http://www.w3.org/2000/svg"
 width="416.000000pt" height="416.000000pt" viewBox="0 0 416.000000 416.000000"
 preserveAspectRatio="xMidYMid meet">

<g transform="translate(0.000000,416.000000) scale(0.100000,-0.100000)"
fill="#000000" stroke="none">
<path d="M2663 3985 c-47 -29 -83 -91 -83 -146 0 -19 35 -141 79 -271 l79
-236 -108 -107 -107 -107 -6 56 c-11 111 -103 224 -215 266 -87 33 -195 25
-280 -20 -116 -61 -176 -163 -176 -295 0 -94 27 -165 90 -235 44 -48 134 -96
202 -106 l44 -7 -160 -161 c-158 -159 -182 -192 -182 -255 0 -21 190 -591 211
-633 79 -157 329 -100 329 76 0 37 -21 114 -76 280 l-76 228 58 59 59 59 353
-353 352 -352 -56 -245 c-31 -135 -59 -248 -63 -252 -8 -9 -183 17 -279 42
-272 69 -538 211 -736 393 -69 63 -69 63 -58 96 27 78 -2 164 -71 209 -39 26
-46 27 -209 30 l-169 4 -85 171 c-48 95 -101 191 -120 213 -39 49 -112 97
-172 115 -23 7 -42 14 -42 15 0 2 15 24 34 48 44 58 71 157 63 232 -8 76 -57
174 -109 219 -68 58 -123 79 -213 83 -111 5 -180 -21 -256 -97 -76 -77 -103
-146 -97 -256 5 -88 25 -139 84 -212 33 -41 34 -42 13 -48 -36 -12 -109 -86
-137 -140 l-27 -50 -3 -679 -3 -679 -156 -251 c-147 -234 -157 -254 -161 -307
-5 -67 10 -117 46 -161 70 -83 220 -90 300 -15 13 12 105 153 205 312 l182
290 3 188 c2 104 7 187 12 185 5 -2 79 -34 164 -73 l156 -70 0 -350 c0 -213 4
-365 11 -388 13 -47 60 -102 110 -128 45 -23 125 -25 173 -5 46 19 101 79 114
125 8 27 12 173 12 482 0 408 -2 447 -19 484 -28 61 -73 94 -229 164 l-142 64
0 146 0 146 25 -42 c41 -68 83 -87 200 -92 l100 -4 125 -154 c251 -309 466
-481 762 -607 233 -99 417 -135 726 -143 l212 -6 0 -183 c0 -174 1 -184 20
-194 14 -8 126 -10 348 -8 314 3 329 4 368 25 53 28 110 92 124 140 8 25 10
116 8 268 -3 217 -4 232 -26 273 -31 58 -88 113 -147 142 -49 24 -56 25 -322
28 -150 2 -273 7 -273 11 0 4 27 124 60 266 33 142 60 278 60 302 0 74 -24
110 -167 255 l-137 138 175 0 175 0 79 -342 c43 -189 85 -360 93 -381 33 -84
149 -142 237 -118 92 25 155 94 162 179 6 60 -186 903 -220 972 -16 31 -38 54
-72 75 l-48 30 -272 3 -271 3 -174 174 -174 174 107 110 c109 112 137 155 137
212 0 50 -197 634 -226 668 -54 65 -156 81 -231 36z m145 -92 c21 -19 212
-578 212 -621 0 -16 -40 -64 -132 -158 -73 -75 -135 -142 -136 -151 -3 -9 82
-102 214 -234 l218 -219 273 0 c286 0 310 -3 337 -46 24 -36 219 -893 212
-934 -3 -20 -16 -45 -31 -57 -48 -42 -102 -42 -150 0 -24 20 -35 59 -115 407
-65 280 -94 388 -106 397 -13 10 -84 13 -279 13 -383 0 -382 3 -120 -260 180
-181 185 -187 185 -227 0 -56 -136 -640 -156 -671 -24 -36 -78 -55 -118 -42
-39 13 -72 45 -81 80 -3 15 18 128 55 287 33 144 60 272 60 285 0 30 -774 808
-805 808 -13 0 -61 -41 -125 -105 l-104 -105 87 -264 c91 -276 94 -291 52
-326 -21 -17 -78 -18 -98 -1 -9 7 -61 149 -117 315 -81 245 -99 308 -91 327 5
13 208 222 450 464 292 291 441 447 441 460 0 11 -36 128 -80 260 -44 132 -80
251 -80 264 0 59 82 93 128 54z m-528 -550 c102 -41 163 -161 139 -274 -38
-176 -257 -247 -393 -128 -90 80 -111 207 -49 307 65 105 185 143 303 95z
m-1435 -358 c158 -65 194 -282 65 -398 -94 -84 -215 -89 -315 -13 -76 58 -108
191 -69 284 50 121 195 179 319 127z"/>
<path d="M1982 618 c-7 -7 -12 -21 -12 -33 0 -44 8 -45 342 -45 l318 0 11 24
c8 17 8 29 0 45 -12 21 -16 21 -329 21 -234 0 -321 -3 -330 -12z"/>
<path d="M1728 429 c-25 -14 -24 -65 1 -79 27 -14 675 -14 702 0 12 7 19 21
19 40 0 19 -7 33 -19 40 -26 14 -679 13 -703 -1z"/>
</g>
</svg>
